<svg width="20" height="20" viewBox="0 0 20 20" fill="none" xmlns="http://www.w3.org/2000/svg">
<path d="M9.99998 3.33334C10.884 3.33334 11.7319 3.68453 12.357 4.30965C12.9821 4.93478 13.3333 5.78262 13.3333 6.66668C13.3333 7.55073 12.9821 8.39858 12.357 9.0237C11.7319 9.64882 10.884 10 9.99998 10C9.11592 10 8.26808 9.64882 7.64296 9.0237C7.01784 8.39858 6.66665 7.55073 6.66665 6.66668C6.66665 5.78262 7.01784 4.93478 7.64296 4.30965C8.26808 3.68453 9.11592 3.33334 9.99998 3.33334ZM9.99998 11.6667C13.6833 11.6667 16.6666 13.1583 16.6666 15V16.6667H3.33331V15C3.33331 13.1583 6.31665 11.6667 9.99998 11.6667Z" fill="#592736"/>
</svg>
