<svg width="24" height="24" viewBox="0 0 24 24" fill="none" xmlns="http://www.w3.org/2000/svg">
<path fill-rule="evenodd" clip-rule="evenodd" d="M5.6 5C5.25157 5 5 5.27275 5 5.57143V13.4286C5 13.7273 5.25157 14 5.6 14H18.4C18.7484 14 19 13.7273 19 13.4286V5.57143C19 5.27275 18.7484 5 18.4 5H5.6ZM3 5.57143C3 4.13436 4.18112 3 5.6 3H18.4C19.8189 3 21 4.13436 21 5.57143V13.4286C21 14.8656 19.8189 16 18.4 16H5.6C4.18112 16 3 14.8656 3 13.4286V5.57143Z" fill="#979797"/>
<path fill-rule="evenodd" clip-rule="evenodd" d="M8 19C8 18.4477 8.44772 18 9 18H15C15.5523 18 16 18.4477 16 19C16 19.5523 15.5523 20 15 20H9C8.44772 20 8 19.5523 8 19Z" fill="#979797"/>
<path fill-rule="evenodd" clip-rule="evenodd" d="M12 14C12.5523 14 13 14.4477 13 15V18C13 18.5523 12.5523 19 12 19C11.4477 19 11 18.5523 11 18V15C11 14.4477 11.4477 14 12 14Z" fill="#979797"/>
<path fill-rule="evenodd" clip-rule="evenodd" d="M20.7071 5.29289C21.0976 5.68342 21.0976 6.31658 20.7071 6.70711L16.1274 11.2868L13.1274 9.2868L11.4142 11H8.41421L4.70711 14.7071C4.31658 15.0976 3.68342 15.0976 3.29289 14.7071C2.90237 14.3166 2.90237 13.6834 3.29289 13.2929L7.58579 9H10.5858L12.8726 6.7132L15.8726 8.7132L19.2929 5.29289C19.6834 4.90237 20.3166 4.90237 20.7071 5.29289Z" fill="#979797"/>
</svg>
