<svg width="50" height="50" viewBox="0 0 50 50" fill="none" xmlns="http://www.w3.org/2000/svg">
<path d="M26.5 22.5C25.5 22.25 24.5 21.75 23.75 21C23 20.75 22.75 20 22.75 19.5C22.75 19 23 18.25 23.5 18C24.25 17.5 25 17 25.75 17.25C27.25 17.25 28.5 18 29.25 19L31.5 16C30.75 15.25 30 14.75 29.25 14.25C28.5 13.75 27.5 13.5 26.5 13.5V10H23.5V13.5C22.25 13.75 21 14.5 20 15.5C19 16.75 18.25 18.25 18.5 19.75C18.5 21.25 19 22.75 20 23.75C21.25 25 23 25.75 24.5 26.5C25.25 26.75 26.25 27.25 27 27.75C27.5 28.25 27.75 29 27.75 29.75C27.75 30.5 27.5 31.25 27 32C26.25 32.75 25.25 33 24.5 33C23.5 33 22.25 32.75 21.5 32C20.75 31.5 20 30.75 19.5 30L17 32.75C17.75 33.75 18.5 34.5 19.5 35.25C20.75 36 22.25 36.75 23.75 36.75V40H26.5V36.25C28 36 29.25 35.25 30.25 34.25C31.5 33 32.25 31 32.25 29.25C32.25 27.75 31.75 26 30.5 25C29.25 23.75 28 23 26.5 22.5ZM25 5C14 5 5 14 5 25C5 36 14 45 25 45C36 45 45 36 45 25C45 14 36 5 25 5ZM25 42.25C15.5 42.25 7.75 34.5 7.75 25C7.75 15.5 15.5 7.75 25 7.75C34.5 7.75 42.25 15.5 42.25 25C42.25 34.5 34.5 42.25 25 42.25Z" fill="#AE943B"/>
</svg>
