<svg width="20" height="20" viewBox="0 0 20 20" fill="none" xmlns="http://www.w3.org/2000/svg">
<path d="M14.1666 15C13.2416 15 12.5 15.7417 12.5 16.6667C12.5 17.1087 12.6756 17.5326 12.9881 17.8452C13.3007 18.1577 13.7246 18.3333 14.1666 18.3333C14.6087 18.3333 15.0326 18.1577 15.3452 17.8452C15.6577 17.5326 15.8333 17.1087 15.8333 16.6667C15.8333 16.2246 15.6577 15.8007 15.3452 15.4881C15.0326 15.1756 14.6087 15 14.1666 15ZM0.833313 1.66666V3.33332H2.49998L5.49998 9.65832L4.36665 11.7C4.24165 11.9333 4.16665 12.2083 4.16665 12.5C4.16665 12.942 4.34224 13.3659 4.6548 13.6785C4.96736 13.9911 5.39129 14.1667 5.83331 14.1667H15.8333V12.5H6.18331C6.12806 12.5 6.07507 12.478 6.036 12.439C5.99693 12.3999 5.97498 12.3469 5.97498 12.2917C5.97498 12.25 5.98331 12.2167 5.99998 12.1917L6.74998 10.8333H12.9583C13.5833 10.8333 14.1333 10.4833 14.4166 9.97499L17.4 4.58332C17.4583 4.44999 17.5 4.30832 17.5 4.16666C17.5 3.94564 17.4122 3.73368 17.2559 3.5774C17.0996 3.42112 16.8877 3.33332 16.6666 3.33332H4.34165L3.55831 1.66666M5.83331 15C4.90831 15 4.16665 15.7417 4.16665 16.6667C4.16665 17.1087 4.34224 17.5326 4.6548 17.8452C4.96736 18.1577 5.39129 18.3333 5.83331 18.3333C6.27534 18.3333 6.69926 18.1577 7.01182 17.8452C7.32438 17.5326 7.49998 17.1087 7.49998 16.6667C7.49998 16.2246 7.32438 15.8007 7.01182 15.4881C6.69926 15.1756 6.27534 15 5.83331 15Z" fill="#592736"/>
</svg>
