<svg width="40" height="40" viewBox="0 0 40 40" fill="none" xmlns="http://www.w3.org/2000/svg">
<g clip-path="url(#clip0_132_4737)">
<path d="M20 0C8.9543 0 0 8.9543 0 20C0 31.0457 8.9543 40 20 40C31.0457 40 40 31.0457 40 20C40 8.9543 31.0457 0 20 0ZM9.91943 8.4497L13.479 9.56787C13.9502 9.72263 14.2641 10.1602 14.3188 10.6079L14.519 12.5683L30.6372 14.3676C31.3293 14.5017 31.8156 15.1266 31.7187 15.769L30.7178 21.4086C30.5904 21.9985 30.1018 22.4028 29.5581 22.4095H15.2393L14.9585 24.0087H28.5571C29.2682 24.0337 29.789 24.5752 29.7974 25.2074C29.7679 25.9287 29.1865 26.4008 28.5571 26.4086H13.5181C12.7595 26.3458 12.2027 25.7447 12.3193 25.0096L12.959 21.4891L11.958 11.6479L9.1992 10.7691C8.8792 10.6624 8.639 10.4618 8.479 10.1684C8.17627 9.53403 8.45903 8.83163 8.99903 8.5278C9.30723 8.3676 9.60823 8.34763 9.91943 8.4497ZM15.3394 27.0996C16.3749 27.0996 17.2144 27.9391 17.2144 28.9746C17.2144 30.0101 16.3749 30.8496 15.3394 30.8496C14.3039 30.8496 13.4644 30.0101 13.4644 28.9746C13.4644 27.9391 14.3038 27.0996 15.3394 27.0996ZM26.3452 27.0996C27.3807 27.0996 28.2202 27.9391 28.2202 28.9746C28.2202 30.0101 27.3807 30.8496 26.3452 30.8496C25.3097 30.8496 24.4702 30.0101 24.4702 28.9746C24.4702 27.9391 25.3097 27.0996 26.3452 27.0996Z" fill="#46739C"/>
</g>
<defs>
<clipPath id="clip0_132_4737">
<rect width="40" height="40" fill="white"/>
</clipPath>
</defs>
</svg>
