<svg width="40" height="40" viewBox="0 0 40 40" fill="none" xmlns="http://www.w3.org/2000/svg">
<path d="M31.6667 5C32.5507 5 33.3986 5.35119 34.0237 5.97631C34.6488 6.60143 35 7.44928 35 8.33333V31.6667C35 32.5507 34.6488 33.3986 34.0237 34.0237C33.3986 34.6488 32.5507 35 31.6667 35H8.33333C7.44928 35 6.60143 34.6488 5.97631 34.0237C5.35119 33.3986 5 32.5507 5 31.6667V8.33333C5 7.44928 5.35119 6.60143 5.97631 5.97631C6.60143 5.35119 7.44928 5 8.33333 5H31.6667ZM27.8333 15.5833C28.2 15.2333 28.2 14.65 27.8333 14.3L25.7 12.1667C25.6172 12.0798 25.5176 12.0107 25.4073 11.9635C25.297 11.9163 25.1783 11.8919 25.0583 11.8919C24.9384 11.8919 24.8196 11.9163 24.7093 11.9635C24.599 12.0107 24.4995 12.0798 24.4167 12.1667L22.75 13.8333L26.1667 17.25L27.8333 15.5833ZM11.6667 24.9V28.3333H15.1L25.2 18.2333L21.7667 14.8L11.6667 24.9Z" fill="#5891BA"/>
</svg>
