<svg width="48" height="47" viewBox="0 0 48 47" fill="none" xmlns="http://www.w3.org/2000/svg">
<path d="M24 42.9167C21.2667 42.9167 18.6833 42.3914 16.25 41.3407C13.8167 40.2901 11.6913 38.8567 9.874 37.0407C8.058 35.2247 6.62467 33.1001 5.574 30.6667C4.52334 28.2334 3.99867 25.6501 4 22.9167C4 20.1501 4.52534 17.5581 5.576 15.1407C6.62667 12.7234 8.06 10.6074 9.876 8.79275C11.692 6.97541 13.816 5.54208 16.248 4.49275C18.68 3.44341 21.264 2.91808 24 2.91675C26.7667 2.91675 29.3587 3.44208 31.776 4.49275C34.1933 5.54341 36.3093 6.97675 38.124 8.79275C39.9413 10.6087 41.3747 12.7254 42.424 15.1427C43.4733 17.5601 43.9987 20.1514 44 22.9167C44 25.6501 43.4747 28.2334 42.424 30.6667C41.3733 33.1001 39.94 35.2254 38.124 37.0427C36.308 38.8587 34.1913 40.2921 31.774 41.3427C29.3567 42.3934 26.7653 42.9181 24 42.9167ZM24 38.8167C24.8667 37.6167 25.6167 36.3667 26.25 35.0667C26.8833 33.7667 27.4 32.3834 27.8 30.9167H20.2C20.6 32.3834 21.1167 33.7667 21.75 35.0667C22.3833 36.3667 23.1333 37.6167 24 38.8167ZM18.8 38.0167C18.2 36.9167 17.6747 35.7747 17.224 34.5907C16.7733 33.4067 16.3987 32.1821 16.1 30.9167H10.2C11.1667 32.5834 12.3753 34.0334 13.826 35.2667C15.2767 36.5001 16.9347 37.4167 18.8 38.0167ZM29.2 38.0167C31.0667 37.4167 32.7253 36.5001 34.176 35.2667C35.6267 34.0334 36.8347 32.5834 37.8 30.9167H31.9C31.6 32.1834 31.2253 33.4087 30.776 34.5927C30.3267 35.7767 29.8013 36.9181 29.2 38.0167ZM8.5 26.9167H15.3C15.2 26.2501 15.1247 25.5914 15.074 24.9407C15.0233 24.2901 14.9987 23.6154 15 22.9167C15 22.2167 15.0253 21.5421 15.076 20.8927C15.1267 20.2434 15.2013 19.5847 15.3 18.9167H8.5C8.33334 19.5834 8.208 20.2421 8.124 20.8927C8.04 21.5434 7.99867 22.2181 8 22.9167C8 23.6167 8.042 24.2914 8.126 24.9407C8.21 25.5901 8.33467 26.2487 8.5 26.9167ZM19.3 26.9167H28.7C28.8 26.2501 28.8753 25.5914 28.926 24.9407C28.9767 24.2901 29.0013 23.6154 29 22.9167C29 22.2167 28.9747 21.5421 28.924 20.8927C28.8733 20.2434 28.7987 19.5847 28.7 18.9167H19.3C19.2 19.5834 19.1247 20.2421 19.074 20.8927C19.0233 21.5434 18.9987 22.2181 19 22.9167C19 23.6167 19.0253 24.2914 19.076 24.9407C19.1267 25.5901 19.2013 26.2487 19.3 26.9167ZM32.7 26.9167H39.5C39.6667 26.2501 39.792 25.5914 39.876 24.9407C39.96 24.2901 40.0013 23.6154 40 22.9167C40 22.2167 39.958 21.5421 39.874 20.8927C39.79 20.2434 39.6653 19.5847 39.5 18.9167H32.7C32.8 19.5834 32.8753 20.2421 32.926 20.8927C32.9767 21.5434 33.0013 22.2181 33 22.9167C33 23.6167 32.9747 24.2914 32.924 24.9407C32.8733 25.5901 32.7987 26.2487 32.7 26.9167ZM31.9 14.9167H37.8C36.8333 13.2501 35.6253 11.8001 34.176 10.5667C32.7267 9.33341 31.068 8.41675 29.2 7.81675C29.8 8.91675 30.3253 10.0587 30.776 11.2427C31.2267 12.4267 31.6013 13.6514 31.9 14.9167ZM20.2 14.9167H27.8C27.4 13.4501 26.8833 12.0667 26.25 10.7667C25.6167 9.46675 24.8667 8.21675 24 7.01675C23.1333 8.21675 22.3833 9.46675 21.75 10.7667C21.1167 12.0667 20.6 13.4501 20.2 14.9167ZM10.2 14.9167H16.1C16.4 13.6501 16.7753 12.4247 17.226 11.2407C17.6767 10.0567 18.2013 8.91541 18.8 7.81675C16.9333 8.41675 15.2747 9.33341 13.824 10.5667C12.3733 11.8001 11.1653 13.2501 10.2 14.9167Z" fill="#894B99"/>
</svg>
