<svg width="44" height="44" viewBox="0 0 44 44" fill="none" xmlns="http://www.w3.org/2000/svg">
<circle cx="22" cy="22" r="14.4" fill="white"/>
<path fill-rule="evenodd" clip-rule="evenodd" d="M22 36.4C29.9529 36.4 36.4 29.9529 36.4 22C36.4 14.0471 29.9529 7.59998 22 7.59998C14.0471 7.59998 7.59998 14.0471 7.59998 22C7.59998 29.9529 14.0471 36.4 22 36.4ZM21.1984 16.9023C20.6461 16.5341 19.9359 16.4997 19.3506 16.813C18.7653 17.1262 18.4 17.7361 18.4 18.4V25.6C18.4 26.2638 18.7653 26.8738 19.3506 27.187C19.9359 27.5002 20.6461 27.4659 21.1984 27.0977L26.5984 23.4977C27.0992 23.1638 27.4 22.6018 27.4 22C27.4 21.3981 27.0992 20.8361 26.5984 20.5023L21.1984 16.9023Z" fill="#515151"/>
</svg>
