<svg width="22" height="22" viewBox="0 0 22 22" fill="none" xmlns="http://www.w3.org/2000/svg">
<path d="M17.4167 10.0834H11.9167V4.58335C11.9167 4.34024 11.8201 4.10708 11.6482 3.93517C11.4763 3.76326 11.2431 3.66669 11 3.66669C10.7569 3.66669 10.5237 3.76326 10.3518 3.93517C10.1799 4.10708 10.0833 4.34024 10.0833 4.58335V10.0834H4.58332C4.34021 10.0834 4.10705 10.1799 3.93514 10.3518C3.76323 10.5237 3.66666 10.7569 3.66666 11C3.66666 11.2431 3.76323 11.4763 3.93514 11.6482C4.10705 11.8201 4.34021 11.9167 4.58332 11.9167H10.0833V17.4167C10.0833 17.6598 10.1799 17.893 10.3518 18.0649C10.5237 18.2368 10.7569 18.3334 11 18.3334C11.2431 18.3334 11.4763 18.2368 11.6482 18.0649C11.8201 17.893 11.9167 17.6598 11.9167 17.4167V11.9167H17.4167C17.6598 11.9167 17.8929 11.8201 18.0648 11.6482C18.2367 11.4763 18.3333 11.2431 18.3333 11C18.3333 10.7569 18.2367 10.5237 18.0648 10.3518C17.8929 10.1799 17.6598 10.0834 17.4167 10.0834Z" fill="#592736"/>
</svg>
