<svg width="40" height="40" viewBox="0 0 40 40" fill="none" xmlns="http://www.w3.org/2000/svg">
<path fill-rule="evenodd" clip-rule="evenodd" d="M27.2729 14.5456C27.2729 16.4744 26.5066 18.3242 25.1427 19.6881C23.7788 21.0521 21.929 21.8183 20.0001 21.8183C18.0713 21.8183 16.2215 21.0521 14.8575 19.6881C13.4936 18.3242 12.7274 16.4744 12.7274 14.5456C12.7274 12.6167 13.4936 10.7669 14.8575 9.40296C16.2215 8.03906 18.0713 7.27283 20.0001 7.27283C21.929 7.27283 23.7788 8.03906 25.1427 9.40296C26.5066 10.7669 27.2729 12.6167 27.2729 14.5456ZM23.6365 14.5456C23.6365 15.51 23.2534 16.4349 22.5714 17.1169C21.8895 17.7988 20.9646 18.1819 20.0001 18.1819C19.0357 18.1819 18.1108 17.7988 17.4288 17.1169C16.7469 16.4349 16.3638 15.51 16.3638 14.5456C16.3638 13.5811 16.7469 12.6562 17.4288 11.9743C18.1108 11.2923 19.0357 10.9092 20.0001 10.9092C20.9646 10.9092 21.8895 11.2923 22.5714 11.9743C23.2534 12.6562 23.6365 13.5811 23.6365 14.5456Z" fill="#5A58BA"/>
<path fill-rule="evenodd" clip-rule="evenodd" d="M20 0C8.95455 0 0 8.95455 0 20C0 31.0455 8.95455 40 20 40C31.0455 40 40 31.0455 40 20C40 8.95455 31.0455 0 20 0ZM3.63636 20C3.63636 23.8 4.93273 27.2982 7.10545 30.0764C8.63133 28.0725 10.5998 26.4486 12.8572 25.3315C15.1145 24.2143 17.5995 23.6342 20.1182 23.6364C22.6042 23.634 25.058 24.1991 27.2926 25.2887C29.5272 26.3783 31.4836 27.9635 33.0127 29.9236C34.5881 27.8575 35.6488 25.4458 36.1071 22.8883C36.5654 20.3308 36.4081 17.701 35.6482 15.2163C34.8883 12.7317 33.5477 10.4637 31.7372 8.60007C29.9268 6.73641 27.6986 5.33065 25.2371 4.49911C22.7755 3.66756 20.1513 3.43413 17.5816 3.81813C15.0119 4.20214 12.5705 5.19253 10.4596 6.70737C8.34863 8.22221 6.62875 10.2179 5.44223 12.5294C4.25572 14.8409 3.63669 17.4018 3.63636 20ZM20 36.3636C16.2435 36.3693 12.6005 35.077 9.68727 32.7055C10.8599 31.0268 12.4206 29.6562 14.2367 28.7103C16.0528 27.7645 18.0705 27.2713 20.1182 27.2727C22.1403 27.2711 24.1336 27.752 25.9326 28.6753C27.7316 29.5987 29.2843 30.9379 30.4618 32.5818C27.526 35.0304 23.8229 36.369 20 36.3636Z" fill="#5A58BA"/>
</svg>
