<svg width="20" height="20" viewBox="0 0 20 20" fill="none" xmlns="http://www.w3.org/2000/svg">
<circle cx="10" cy="10" r="10" fill="#D9D9D9"/>
<path d="M12.5996 11.8766C12.5996 12.5804 12.3448 13.1284 11.8352 13.5207C11.3296 13.913 10.6198 14.1092 9.70576 14.1092C8.79575 14.1092 8.08595 13.9879 7.57634 13.7452V12.8473C8.29626 13.1466 9.0364 13.2963 9.79676 13.2963C10.4075 13.2963 10.8706 13.181 11.186 12.9505C11.5056 12.7199 11.6653 12.3903 11.6653 11.9616C11.6653 11.6866 11.6087 11.4621 11.4954 11.2882C11.3862 11.1143 11.2002 10.9505 10.9373 10.7968C10.6744 10.6431 10.2801 10.4732 9.7543 10.2872C9.01416 10.0243 8.48231 9.71082 8.15875 9.34681C7.83923 8.98281 7.67947 8.49949 7.67947 7.89687C7.67947 7.29424 7.91001 6.81092 8.37108 6.44692C8.84024 6.08291 9.46107 5.90091 10.2336 5.90091C11.0101 5.90091 11.7321 6.04651 12.3994 6.33771L12.1082 7.15066C11.4489 6.87159 10.8099 6.73205 10.1911 6.73205C9.69767 6.73205 9.31143 6.83923 9.03236 7.05359C8.75733 7.2639 8.61982 7.55511 8.61982 7.9272C8.61982 8.21031 8.66835 8.4368 8.76542 8.60667C8.86653 8.77654 9.04044 8.94034 9.28716 9.09808C9.54196 9.25177 9.91405 9.41355 10.4034 9.58342C11.2447 9.88271 11.819 10.2042 12.1264 10.548C12.4419 10.8878 12.5996 11.3306 12.5996 11.8766Z" fill="#592736"/>
</svg>
