<svg width="20" height="22" viewBox="0 0 20 22" fill="none" xmlns="http://www.w3.org/2000/svg">
<path d="M16.3333 19.25L11.0833 13.475C10.6667 13.8417 10.1875 14.1319 9.64583 14.3458C9.10417 14.5597 8.52778 14.6667 7.91667 14.6667C6.40278 14.6667 5.12167 14.0898 4.07333 12.936C3.025 11.7822 2.50056 10.373 2.5 8.70833C2.5 7.04306 3.02444 5.63383 4.07333 4.48067C5.12222 3.3275 6.40333 2.75061 7.91667 2.75C9.43056 2.75 10.7117 3.32689 11.76 4.48067C12.8083 5.63444 13.3328 7.04367 13.3333 8.70833C13.3333 9.38056 13.2361 10.0146 13.0417 10.6104C12.8472 11.2063 12.5833 11.7333 12.25 12.1917L17.5 17.9667L16.3333 19.25ZM7.91667 12.8333C8.95833 12.8333 9.84389 12.4321 10.5733 11.6298C11.3028 10.8274 11.6672 9.85356 11.6667 8.70833C11.6667 7.5625 11.3019 6.58839 10.5725 5.786C9.84306 4.98361 8.95778 4.58272 7.91667 4.58333C6.875 4.58333 5.98944 4.98453 5.26 5.78692C4.53056 6.58931 4.16611 7.56311 4.16667 8.70833C4.16667 9.85417 4.53139 10.8283 5.26083 11.6307C5.99028 12.4331 6.87556 12.8339 7.91667 12.8333Z" fill="#592736"/>
</svg>
