<svg width="41" height="41" viewBox="0 0 41 41" fill="none" xmlns="http://www.w3.org/2000/svg">
<path d="M20.5 0.625C9.5408 0.625 0.625 9.5408 0.625 20.5C0.625 31.4592 9.5408 40.375 20.5 40.375C31.4592 40.375 40.375 31.4592 40.375 20.5C40.375 9.5408 31.4592 0.625 20.5 0.625ZM29.952 29.952C29.6414 30.2624 29.2203 30.4367 28.7812 30.4367C28.3422 30.4367 27.9211 30.2624 27.6105 29.952L23.1759 25.5184C21.3024 26.8076 19.0148 27.3501 16.7619 27.0395C14.5091 26.7289 12.4536 25.5875 10.9989 23.8395C9.54422 22.0914 8.79531 19.8628 8.89914 17.591C9.00297 15.3192 9.95205 13.1682 11.5601 11.5601C13.1682 9.95205 15.3192 9.00297 17.591 8.89914C19.8628 8.79531 22.0914 9.54422 23.8395 10.9989C25.5875 12.4536 26.7289 14.5091 27.0395 16.7619C27.3501 19.0148 26.8076 21.3024 25.5184 23.1759L29.952 27.6105C30.2624 27.9211 30.4367 28.3422 30.4367 28.7812C30.4367 29.2203 30.2624 29.6414 29.952 29.952Z" fill="#222222"/>
</svg>
